<?xml version="1.0"?>
<svg xmlns="http://www.w3.org/2000/svg" height="512px" viewBox="0 0 128 128" width="512px" class=""><g><g><path d="m78.615 43.616a10.008 10.008 0 0 1 8.118 13.434c-5.544 14.85-19.849 38.984-55.197 45.45 0 0 29.238-21.588 36.1-51.3a9.963 9.963 0 0 1 10.979-7.584z" fill="#fd5d5f" data-original="#FD5D5F" class="active-path" style="fill:#FF0004" data-old_color="#fd5d5f"/><path d="m89.213 40.712a9.455 9.455 0 0 0 -2.293-2.718 34.817 34.817 0 0 1 9.544-9.827l-1.929-2.667c-6.235 1.676-10.813 6.587-13.407 10.109a9.6 9.6 0 0 0 -4.75.661c-4.544 1.906-11.278 14.346-11.278 14.346s3.529.721 7.705 1.266c1.137 4.247 2.564 8.056 2.564 8.056s3.477-2.112 7-4.748c3.619 2.153 6.839 3.768 6.839 3.768s2.398-13.939.005-18.246z" fill="#20cb79" data-original="#20CB79" class="" style="fill:#178450" data-old_color="#20cb79"/></g></g> </svg>
